<svg xmlns="http://www.w3.org/2000/svg" version="1.1" xmlns:xlink="http://www.w3.org/1999/xlink" xmlns:svgjs="http://svgjs.dev/svgjs" width="1440" height="560" preserveAspectRatio="none" viewBox="0 0 1440 560"><g mask="url(&quot;#SvgjsMask1305&quot;)" fill="none"><g transform="translate(0, 0)" stroke-linecap="round"><path d="M72 57.88 L72 502.12" stroke-width="12" stroke="rgba(220, 39, 39, 1)"></path><path d="M88 184.08 L88 208.08" stroke-width="12" stroke="rgba(220, 39, 39, 1)"></path><path d="M88 226.08 L88 375.92" stroke-width="12" stroke="rgba(220, 39, 39, 1)"></path><path d="M104 70.82 L104 286.82" stroke-width="12" stroke="rgba(220, 39, 39, 1)"></path><path d="M104 304.82 L104 489.18" stroke-width="12" stroke="rgba(220, 39, 39, 1)"></path><path d="M120 114.47 L120 174.47" stroke-width="12" stroke="rgba(220, 39, 39, 1)"></path><path d="M120 192.47 L120 396.47" stroke-width="12" stroke="rgba(220, 39, 39, 1)"></path><path d="M120 414.47 L120 445.53" stroke-width="12" stroke="rgba(220, 39, 39, 1)"></path><path d="M136 86 L136 194" stroke-width="12" stroke="rgba(220, 39, 39, 1)"></path><path d="M136 212 L136 474" stroke-width="12" stroke="rgba(220, 39, 39, 1)"></path><path d="M152 44.5 L152 515.5" stroke-width="12" stroke="rgba(220, 39, 39, 1)"></path><path d="M168 175.91 L168 259.90999999999997" stroke-width="12" stroke="rgba(220, 39, 39, 1)"></path><path d="M168 277.90999999999997 L168 337.90999999999997" stroke-width="12" stroke="rgba(220, 39, 39, 1)"></path><path d="M168 355.90999999999997 L168 384.1" stroke-width="12" stroke="rgba(220, 39, 39, 1)"></path><path d="M184 196.87 L184 363.13" stroke-width="12" stroke="rgba(220, 39, 39, 1)"></path><path d="M200 227.84 L200 263.84000000000003" stroke-width="12" stroke="rgba(220, 39, 39, 1)"></path><path d="M200 281.84000000000003 L200 293.84000000000003" stroke-width="12" stroke="rgba(220, 39, 39, 1)"></path><path d="M200 311.84000000000003 L200 332.17" stroke-width="12" stroke="rgba(220, 39, 39, 1)"></path><path d="M216 229.07 L216 330.93" stroke-width="12" stroke="rgba(220, 39, 39, 1)"></path><path d="M232 54.07 L232 282.07" stroke-width="12" stroke="rgba(220, 39, 39, 1)"></path><path d="M232 300.07 L232 505.93" stroke-width="12" stroke="rgba(220, 39, 39, 1)"></path><path d="M248 253.4 L248 306.61" stroke-width="12" stroke="rgba(220, 39, 39, 1)"></path><path d="M264 141.72 L264 369.72" stroke-width="12" stroke="rgba(220, 39, 39, 1)"></path><path d="M264 387.72 L264 418.28" stroke-width="12" stroke="rgba(220, 39, 39, 1)"></path><path d="M280 242.91 L280 254.91" stroke-width="12" stroke="rgba(220, 39, 39, 1)"></path><path d="M280 272.90999999999997 L280 284.90999999999997" stroke-width="12" stroke="rgba(220, 39, 39, 1)"></path><path d="M280 302.90999999999997 L280 317.08" stroke-width="12" stroke="rgba(220, 39, 39, 1)"></path><path d="M296 149.21 L296 305.21000000000004" stroke-width="12" stroke="rgba(220, 39, 39, 1)"></path><path d="M296 323.21000000000004 L296 410.79" stroke-width="12" stroke="rgba(220, 39, 39, 1)"></path><path d="M312 180.47 L312 228.47" stroke-width="12" stroke="rgba(220, 39, 39, 1)"></path><path d="M312 246.47 L312 282.47" stroke-width="12" stroke="rgba(220, 39, 39, 1)"></path><path d="M312 300.47 L312 379.52" stroke-width="12" stroke="rgba(220, 39, 39, 1)"></path><path d="M328 109.32 L328 241.32" stroke-width="12" stroke="rgba(220, 39, 39, 1)"></path><path d="M328 259.32 L328 450.68" stroke-width="12" stroke="rgba(220, 39, 39, 1)"></path><path d="M344 243.38 L344 267.38" stroke-width="12" stroke="rgba(220, 39, 39, 1)"></path><path d="M344 285.38 L344 316.62" stroke-width="12" stroke="rgba(220, 39, 39, 1)"></path><path d="M360 213.7 L360 297.7" stroke-width="12" stroke="rgba(220, 39, 39, 1)"></path><path d="M360 315.7 L360 346.3" stroke-width="12" stroke="rgba(220, 39, 39, 1)"></path><path d="M376 52.66 L376 268.65999999999997" stroke-width="12" stroke="rgba(220, 39, 39, 1)"></path><path d="M376 286.65999999999997 L376 507.35" stroke-width="12" stroke="rgba(220, 39, 39, 1)"></path><path d="M392 140.18 L392 272.18" stroke-width="12" stroke="rgba(220, 39, 39, 1)"></path><path d="M392 290.18 L392 419.82" stroke-width="12" stroke="rgba(220, 39, 39, 1)"></path><path d="M408 150.76 L408 174.76" stroke-width="12" stroke="rgba(220, 39, 39, 1)"></path><path d="M408 192.76 L408 409.24" stroke-width="12" stroke="rgba(220, 39, 39, 1)"></path><path d="M424 78.51 L424 366.51" stroke-width="12" stroke="rgba(220, 39, 39, 1)"></path><path d="M424 384.51 L424 420.51" stroke-width="12" stroke="rgba(220, 39, 39, 1)"></path><path d="M424 438.51 L424 481.49" stroke-width="12" stroke="rgba(220, 39, 39, 1)"></path><path d="M440 78.69 L440 294.69" stroke-width="12" stroke="rgba(220, 39, 39, 1)"></path><path d="M440 312.69 L440 348.69" stroke-width="12" stroke="rgba(220, 39, 39, 1)"></path><path d="M440 366.69 L440 481.31" stroke-width="12" stroke="rgba(220, 39, 39, 1)"></path><path d="M456 234.74 L456 246.74" stroke-width="12" stroke="rgba(220, 39, 39, 1)"></path><path d="M456 264.74 L456 276.74" stroke-width="12" stroke="rgba(220, 39, 39, 1)"></path><path d="M456 294.74 L456 325.26" stroke-width="12" stroke="rgba(220, 39, 39, 1)"></path><path d="M472 256.25 L472 303.75" stroke-width="12" stroke="rgba(220, 39, 39, 1)"></path><path d="M488 28.83 L488 256.83" stroke-width="12" stroke="rgba(220, 39, 39, 1)"></path><path d="M488 274.83 L488 298.83" stroke-width="12" stroke="rgba(220, 39, 39, 1)"></path><path d="M488 316.83 L488 531.16" stroke-width="12" stroke="rgba(220, 39, 39, 1)"></path><path d="M504 251.75 L504 263.75" stroke-width="12" stroke="rgba(220, 39, 39, 1)"></path><path d="M504 281.75 L504 308.25" stroke-width="12" stroke="rgba(220, 39, 39, 1)"></path><path d="M520 157.4 L520 277.4" stroke-width="12" stroke="rgba(220, 39, 39, 1)"></path><path d="M520 295.4 L520 367.4" stroke-width="12" stroke="rgba(220, 39, 39, 1)"></path><path d="M520 385.4 L520 402.6" stroke-width="12" stroke="rgba(220, 39, 39, 1)"></path><path d="M536 43.13 L536 307.13" stroke-width="12" stroke="rgba(220, 39, 39, 1)"></path><path d="M536 325.13 L536 445.13" stroke-width="12" stroke="rgba(220, 39, 39, 1)"></path><path d="M536 463.13 L536 516.87" stroke-width="12" stroke="rgba(220, 39, 39, 1)"></path><path d="M552 250.41 L552 309.58" stroke-width="12" stroke="rgba(220, 39, 39, 1)"></path><path d="M568 186.48 L568 306.48" stroke-width="12" stroke="rgba(220, 39, 39, 1)"></path><path d="M568 324.48 L568 336.48" stroke-width="12" stroke="rgba(220, 39, 39, 1)"></path><path d="M568 354.48 L568 373.52" stroke-width="12" stroke="rgba(220, 39, 39, 1)"></path><path d="M584 137.43 L584 197.43" stroke-width="12" stroke="rgba(220, 39, 39, 1)"></path><path d="M584 215.43 L584 239.43" stroke-width="12" stroke="rgba(220, 39, 39, 1)"></path><path d="M584 257.43 L584 422.57" stroke-width="12" stroke="rgba(220, 39, 39, 1)"></path><path d="M600 96.75 L600 324.75" stroke-width="12" stroke="rgba(220, 39, 39, 1)"></path><path d="M600 342.75 L600 366.75" stroke-width="12" stroke="rgba(220, 39, 39, 1)"></path><path d="M600 384.75 L600 463.25" stroke-width="12" stroke="rgba(220, 39, 39, 1)"></path><path d="M616 122.59 L616 182.59" stroke-width="12" stroke="rgba(220, 39, 39, 1)"></path><path d="M616 200.59 L616 437.41" stroke-width="12" stroke="rgba(220, 39, 39, 1)"></path><path d="M632 173.24 L632 257.24" stroke-width="12" stroke="rgba(220, 39, 39, 1)"></path><path d="M632 275.24 L632 386.76" stroke-width="12" stroke="rgba(220, 39, 39, 1)"></path><path d="M648 174.58 L648 294.58000000000004" stroke-width="12" stroke="rgba(220, 39, 39, 1)"></path><path d="M648 312.58000000000004 L648 324.58000000000004" stroke-width="12" stroke="rgba(220, 39, 39, 1)"></path><path d="M648 342.58000000000004 L648 385.42" stroke-width="12" stroke="rgba(220, 39, 39, 1)"></path><path d="M664 43.91 L664 163.91" stroke-width="12" stroke="rgba(220, 39, 39, 1)"></path><path d="M664 181.91 L664 229.91" stroke-width="12" stroke="rgba(220, 39, 39, 1)"></path><path d="M664 247.91 L664 516.1" stroke-width="12" stroke="rgba(220, 39, 39, 1)"></path><path d="M680 253.34 L680 265.34000000000003" stroke-width="12" stroke="rgba(220, 39, 39, 1)"></path><path d="M680 283.34000000000003 L680 306.66" stroke-width="12" stroke="rgba(220, 39, 39, 1)"></path><path d="M696 228.92 L696 252.92" stroke-width="12" stroke="rgba(220, 39, 39, 1)"></path><path d="M696 270.91999999999996 L696 294.91999999999996" stroke-width="12" stroke="rgba(220, 39, 39, 1)"></path><path d="M696 312.91999999999996 L696 331.08" stroke-width="12" stroke="rgba(220, 39, 39, 1)"></path><path d="M712 195.99 L712 364.01" stroke-width="12" stroke="rgba(220, 39, 39, 1)"></path><path d="M728 82.11 L728 238.11" stroke-width="12" stroke="rgba(220, 39, 39, 1)"></path><path d="M728 256.11 L728 477.89" stroke-width="12" stroke="rgba(220, 39, 39, 1)"></path><path d="M744 95.04 L744 371.04" stroke-width="12" stroke="rgba(220, 39, 39, 1)"></path><path d="M744 389.04 L744 401.04" stroke-width="12" stroke="rgba(220, 39, 39, 1)"></path><path d="M744 419.04 L744 464.96" stroke-width="12" stroke="rgba(220, 39, 39, 1)"></path><path d="M760 93.67 L760 466.33" stroke-width="12" stroke="rgba(220, 39, 39, 1)"></path><path d="M776 51.97 L776 87.97" stroke-width="12" stroke="rgba(220, 39, 39, 1)"></path><path d="M776 105.97 L776 357.97" stroke-width="12" stroke="rgba(220, 39, 39, 1)"></path><path d="M776 375.97 L776 508.02" stroke-width="12" stroke="rgba(220, 39, 39, 1)"></path><path d="M792 214.34 L792 238.34" stroke-width="12" stroke="rgba(220, 39, 39, 1)"></path><path d="M792 256.34000000000003 L792 345.65" stroke-width="12" stroke="rgba(220, 39, 39, 1)"></path><path d="M808 185.39 L808 233.39" stroke-width="12" stroke="rgba(220, 39, 39, 1)"></path><path d="M808 251.39 L808 263.39" stroke-width="12" stroke="rgba(220, 39, 39, 1)"></path><path d="M808 281.39 L808 374.61" stroke-width="12" stroke="rgba(220, 39, 39, 1)"></path><path d="M824 83.79 L824 359.79" stroke-width="12" stroke="rgba(220, 39, 39, 1)"></path><path d="M824 377.79 L824 425.79" stroke-width="12" stroke="rgba(220, 39, 39, 1)"></path><path d="M824 443.79 L824 476.21" stroke-width="12" stroke="rgba(220, 39, 39, 1)"></path><path d="M840 79.61 L840 480.39" stroke-width="12" stroke="rgba(220, 39, 39, 1)"></path><path d="M856 234.68 L856 246.68" stroke-width="12" stroke="rgba(220, 39, 39, 1)"></path><path d="M856 264.68 L856 325.32" stroke-width="12" stroke="rgba(220, 39, 39, 1)"></path><path d="M872 250.13 L872 309.87" stroke-width="12" stroke="rgba(220, 39, 39, 1)"></path><path d="M888 158.84 L888 401.16" stroke-width="12" stroke="rgba(220, 39, 39, 1)"></path><path d="M904 77.09 L904 125.09" stroke-width="12" stroke="rgba(220, 39, 39, 1)"></path><path d="M904 143.09 L904 482.9" stroke-width="12" stroke="rgba(220, 39, 39, 1)"></path><path d="M920 72.86 L920 348.86" stroke-width="12" stroke="rgba(220, 39, 39, 1)"></path><path d="M920 366.86 L920 390.86" stroke-width="12" stroke="rgba(220, 39, 39, 1)"></path><path d="M920 408.86 L920 487.14" stroke-width="12" stroke="rgba(220, 39, 39, 1)"></path><path d="M936 212.13 L936 284.13" stroke-width="12" stroke="rgba(220, 39, 39, 1)"></path><path d="M936 302.13 L936 347.88" stroke-width="12" stroke="rgba(220, 39, 39, 1)"></path><path d="M952 217.43 L952 265.43" stroke-width="12" stroke="rgba(220, 39, 39, 1)"></path><path d="M952 283.43 L952 295.43" stroke-width="12" stroke="rgba(220, 39, 39, 1)"></path><path d="M952 313.43 L952 342.57" stroke-width="12" stroke="rgba(220, 39, 39, 1)"></path><path d="M968 224.66 L968 296.65999999999997" stroke-width="12" stroke="rgba(220, 39, 39, 1)"></path><path d="M968 314.65999999999997 L968 335.35" stroke-width="12" stroke="rgba(220, 39, 39, 1)"></path><path d="M984 84.28 L984 240.28" stroke-width="12" stroke="rgba(220, 39, 39, 1)"></path><path d="M984 258.28 L984 366.28" stroke-width="12" stroke="rgba(220, 39, 39, 1)"></path><path d="M984 384.28 L984 475.73" stroke-width="12" stroke="rgba(220, 39, 39, 1)"></path><path d="M1000 197.15 L1000 362.85" stroke-width="12" stroke="rgba(220, 39, 39, 1)"></path><path d="M1016 194.87 L1016 242.87" stroke-width="12" stroke="rgba(220, 39, 39, 1)"></path><path d="M1016 260.87 L1016 308.87" stroke-width="12" stroke="rgba(220, 39, 39, 1)"></path><path d="M1016 326.87 L1016 365.13" stroke-width="12" stroke="rgba(220, 39, 39, 1)"></path><path d="M1032 140.66 L1032 368.65999999999997" stroke-width="12" stroke="rgba(220, 39, 39, 1)"></path><path d="M1032 386.65999999999997 L1032 419.34" stroke-width="12" stroke="rgba(220, 39, 39, 1)"></path><path d="M1048 153.49 L1048 406.51" stroke-width="12" stroke="rgba(220, 39, 39, 1)"></path><path d="M1064 137.66 L1064 221.66" stroke-width="12" stroke="rgba(220, 39, 39, 1)"></path><path d="M1064 239.66 L1064 323.65999999999997" stroke-width="12" stroke="rgba(220, 39, 39, 1)"></path><path d="M1064 341.65999999999997 L1064 422.34" stroke-width="12" stroke="rgba(220, 39, 39, 1)"></path><path d="M1080 74.34 L1080 134.34" stroke-width="12" stroke="rgba(220, 39, 39, 1)"></path><path d="M1080 152.34 L1080 260.34000000000003" stroke-width="12" stroke="rgba(220, 39, 39, 1)"></path><path d="M1080 278.34000000000003 L1080 485.66" stroke-width="12" stroke="rgba(220, 39, 39, 1)"></path><path d="M1096 40.03 L1096 388.03" stroke-width="12" stroke="rgba(220, 39, 39, 1)"></path><path d="M1096 406.03 L1096 430.03" stroke-width="12" stroke="rgba(220, 39, 39, 1)"></path><path d="M1096 448.03 L1096 519.97" stroke-width="12" stroke="rgba(220, 39, 39, 1)"></path><path d="M1112 82.74 L1112 262.74" stroke-width="12" stroke="rgba(220, 39, 39, 1)"></path><path d="M1112 280.74 L1112 477.26" stroke-width="12" stroke="rgba(220, 39, 39, 1)"></path><path d="M1128 41.97 L1128 518.03" stroke-width="12" stroke="rgba(220, 39, 39, 1)"></path><path d="M1144 112.96 L1144 244.95999999999998" stroke-width="12" stroke="rgba(220, 39, 39, 1)"></path><path d="M1144 262.96 L1144 346.96" stroke-width="12" stroke="rgba(220, 39, 39, 1)"></path><path d="M1144 364.96 L1144 447.04" stroke-width="12" stroke="rgba(220, 39, 39, 1)"></path><path d="M1160 77.25 L1160 317.25" stroke-width="12" stroke="rgba(220, 39, 39, 1)"></path><path d="M1160 335.25 L1160 482.75" stroke-width="12" stroke="rgba(220, 39, 39, 1)"></path><path d="M1176 193.11 L1176 205.11" stroke-width="12" stroke="rgba(220, 39, 39, 1)"></path><path d="M1176 223.11 L1176 366.89" stroke-width="12" stroke="rgba(220, 39, 39, 1)"></path><path d="M1192 251.98 L1192 308.02" stroke-width="12" stroke="rgba(220, 39, 39, 1)"></path><path d="M1208 32.370000000000005 L1208 416.37" stroke-width="12" stroke="rgba(220, 39, 39, 1)"></path><path d="M1208 434.37 L1208 482.37" stroke-width="12" stroke="rgba(220, 39, 39, 1)"></path><path d="M1208 500.37 L1208 527.63" stroke-width="12" stroke="rgba(220, 39, 39, 1)"></path><path d="M1224 188.11 L1224 248.11" stroke-width="12" stroke="rgba(220, 39, 39, 1)"></path><path d="M1224 266.11 L1224 290.11" stroke-width="12" stroke="rgba(220, 39, 39, 1)"></path><path d="M1224 308.11 L1224 371.89" stroke-width="12" stroke="rgba(220, 39, 39, 1)"></path><path d="M1240 259.05 L1240 300.95" stroke-width="12" stroke="rgba(220, 39, 39, 1)"></path><path d="M1256 185.18 L1256 221.18" stroke-width="12" stroke="rgba(220, 39, 39, 1)"></path><path d="M1256 239.18 L1256 299.18" stroke-width="12" stroke="rgba(220, 39, 39, 1)"></path><path d="M1256 317.18 L1256 374.82" stroke-width="12" stroke="rgba(220, 39, 39, 1)"></path><path d="M1272 203.01 L1272 227.01" stroke-width="12" stroke="rgba(220, 39, 39, 1)"></path><path d="M1272 245.01 L1272 356.99" stroke-width="12" stroke="rgba(220, 39, 39, 1)"></path><path d="M1288 248.59 L1288 311.42" stroke-width="12" stroke="rgba(220, 39, 39, 1)"></path><path d="M1304 170.09 L1304 266.09000000000003" stroke-width="12" stroke="rgba(220, 39, 39, 1)"></path><path d="M1304 284.09000000000003 L1304 332.09000000000003" stroke-width="12" stroke="rgba(220, 39, 39, 1)"></path><path d="M1304 350.09000000000003 L1304 389.91" stroke-width="12" stroke="rgba(220, 39, 39, 1)"></path><path d="M1320 128.81 L1320 356.81" stroke-width="12" stroke="rgba(220, 39, 39, 1)"></path><path d="M1320 374.81 L1320 386.81" stroke-width="12" stroke="rgba(220, 39, 39, 1)"></path><path d="M1320 404.81 L1320 431.19" stroke-width="12" stroke="rgba(220, 39, 39, 1)"></path><path d="M1336 180.37 L1336 276.37" stroke-width="12" stroke="rgba(220, 39, 39, 1)"></path><path d="M1336 294.37 L1336 330.37" stroke-width="12" stroke="rgba(220, 39, 39, 1)"></path><path d="M1336 348.37 L1336 379.63" stroke-width="12" stroke="rgba(220, 39, 39, 1)"></path><path d="M1352 87.69 L1352 267.69" stroke-width="12" stroke="rgba(220, 39, 39, 1)"></path><path d="M1352 285.69 L1352 472.31" stroke-width="12" stroke="rgba(220, 39, 39, 1)"></path><path d="M1368 168.26 L1368 312.26" stroke-width="12" stroke="rgba(220, 39, 39, 1)"></path><path d="M1368 330.26 L1368 342.26" stroke-width="12" stroke="rgba(220, 39, 39, 1)"></path><path d="M1368 360.26 L1368 391.74" stroke-width="12" stroke="rgba(220, 39, 39, 1)"></path></g></g><defs><mask id="SvgjsMask1305"><rect width="1440" height="560" fill="#ffffff"></rect></mask></defs></svg>